<svg width="111" height="97" viewBox="0 0 111 97" fill="none" xmlns="http://www.w3.org/2000/svg">
<path d="M39.0662 2.25762C41.4341 0.964901 44.0493 0.101608 46.7272 0C47.3768 0.0200248 48.0327 0.0711993 48.6597 0.264031C49.973 0.655628 51.153 1.42844 52.2119 2.31992C53.9275 3.80695 55.3774 5.61882 56.5617 7.59461C57.1204 8.56618 57.6932 9.5563 57.951 10.6718C58.1743 11.6938 58.187 12.7543 58.0884 13.7942C57.9588 15.4599 57.598 17.1005 57.5558 18.7737C57.4902 19.1171 57.5727 19.4619 57.5797 19.8068C57.6424 20.7954 57.9961 21.7982 58.7034 22.4768C59.4876 23.1858 60.4514 23.6204 61.4067 24.0076C63.8437 24.9695 66.3975 25.6355 68.7133 26.9134C70.028 27.6306 71.2538 28.571 72.1845 29.7933C72.9827 30.813 73.4999 32.0405 73.8606 33.2976C74.3678 35.0843 74.606 36.9406 74.7722 38.7933C75.0907 42.4705 75.0928 46.1662 75.4218 49.8426C75.5958 51.5551 75.8114 53.2831 76.3673 54.9126C77.2937 57.3764 78.7732 59.608 80.655 61.3695C82.5607 63.1865 84.7899 64.5608 86.9908 65.9366C86.5913 66.6442 86.206 67.3606 85.7875 68.0555C84.7469 67.3651 83.6662 66.7421 82.6425 66.0241C80.4296 64.5126 78.3435 62.7356 76.7329 60.5195C75.7825 59.235 75.0083 57.8117 74.389 56.3217C73.8888 55.1173 73.6147 53.826 73.3942 52.537C72.8792 49.1425 72.8376 45.6982 72.6551 42.2739C72.541 40.0912 72.4071 37.9018 72.0239 35.7503C71.7731 34.4301 71.4405 33.0996 70.7755 31.9374C70.1703 30.8917 69.2551 30.0892 68.2666 29.4662C67.0091 28.6682 65.6212 28.1401 64.2403 27.6343C62.8658 27.1255 61.4609 26.7028 60.1132 26.1168C59.1959 25.7253 58.2955 25.2632 57.5128 24.6194C55.9276 23.3809 55.1695 21.2456 55.2217 19.2112C55.1681 16.9907 55.7628 14.8236 55.8121 12.609C55.8057 11.8933 55.7346 11.1516 55.4239 10.5041C54.4608 8.42749 53.1151 6.55777 51.5391 4.95504C50.5591 4.0109 49.4713 3.13278 48.1962 2.68778C47.0901 2.30434 45.9079 2.50088 44.7877 2.70039C43.4357 3.00076 42.107 3.43908 40.8621 4.0732C39.7369 4.61758 38.6604 5.30658 37.7734 6.22476C37.3204 6.7239 36.9139 7.31574 36.7998 8.01068C36.5962 9.1736 36.7744 10.361 36.9801 11.5098C37.2746 13.0095 37.722 14.4728 38.2497 15.8997C38.8302 17.4743 39.5164 19.0065 40.3111 20.4743C40.8071 21.3658 41.3327 22.2483 41.9801 23.0293C43.7083 25.0058 45.9079 26.461 48.2074 27.589C49.2656 28.0778 50.3576 28.5272 51.5088 28.6941C51.9062 28.7616 52.3599 28.6533 52.5938 28.2803C53.0926 27.549 53.2758 26.6457 53.4547 25.7816C53.6302 24.8301 53.7556 23.8696 53.8563 22.9069C54.6285 23.0174 55.4027 23.1183 56.1756 23.2288C56.046 24.4489 55.8889 25.6696 55.6247 26.8667C55.3696 27.9576 55.0202 29.0687 54.3157 29.9364C53.7168 30.6922 52.8038 31.1446 51.871 31.1713C50.9734 31.1787 50.0956 30.9325 49.2438 30.6573C47.0365 29.8704 44.9575 28.7097 43.0616 27.2879C42.1887 26.6138 41.3426 25.8936 40.5936 25.0696C39.6432 24.032 38.8972 22.8127 38.2159 21.569C36.8688 19.0666 35.8099 16.3914 35.0575 13.6258C34.7679 12.4933 34.5312 11.3415 34.4234 10.1726C34.3748 9.67719 34.4023 9.1788 34.3938 8.68188C34.3882 7.44702 34.7855 6.21957 35.5063 5.24503C36.4391 3.96121 37.7297 3.02301 39.0662 2.25762Z" fill="#E27D60"/>
<path d="M57.6726 29.9308C58.2926 29.7372 58.9337 29.6297 59.5748 29.5459C59.6925 30.3573 59.8073 31.1694 59.9151 31.983C58.9788 32.1098 57.9953 32.2589 57.202 32.8411C56.3826 33.4196 55.8352 34.3155 55.3688 35.21C54.8179 36.278 54.572 37.478 54.3656 38.6624C53.8322 41.9576 53.5497 45.3099 52.6712 48.5332C52.2069 50.2701 51.5771 51.9648 50.7182 53.529C49.4346 55.7896 47.841 57.8358 46.1663 59.7849C45.6583 60.3619 45.1553 60.9434 44.6178 61.49C44.2148 61.9587 43.7956 62.4119 43.3524 62.8383C39.8531 66.4472 36.1078 69.7817 32.3675 73.1088C31.8652 72.4814 31.3431 71.871 30.8584 71.228C32.8233 69.5066 34.7594 67.7481 36.6834 65.9755C38.2918 64.4796 39.8911 62.9711 41.422 61.3884C41.7024 61.0643 42.0371 60.7995 42.3182 60.4769C42.7635 59.931 43.289 59.4652 43.7413 58.9261C44.784 57.7698 45.7809 56.5668 46.7116 55.3082C47.4753 54.2655 48.2193 53.199 48.8301 52.0472C50.3258 49.1999 50.95 45.9626 51.4037 42.7757C51.6989 40.8318 51.8955 38.8686 52.3105 36.9469C52.5056 36.0985 52.736 35.2508 53.1143 34.4698C53.6152 33.3788 54.2437 32.3346 55.0842 31.4972C55.8098 30.7659 56.7046 30.2171 57.6726 29.9308Z" fill="#E27D60"/>
<path d="M46.5578 35.8665C47.4109 34.9046 48.4121 34.1066 49.3921 33.2944C49.7655 33.8462 50.1945 34.3558 50.5552 34.9172C49.6866 35.6158 48.8214 36.3278 48.0563 37.1533C47.4694 37.754 46.972 38.4438 46.5113 39.1543C45.8659 40.2126 45.3086 41.3377 44.9198 42.5296C44.2737 44.5773 43.8742 46.6985 43.4353 48.8026C43.0387 50.7227 42.6406 52.6459 42.0904 54.5252C41.8072 55.4523 41.4901 56.372 41.0632 57.2382C40.3594 58.6288 39.4097 59.8622 38.3888 61.0081C37.0242 62.53 35.5369 63.9324 33.9412 65.1821C33.5706 64.6348 33.2007 64.0875 32.8188 63.5497C34.9867 61.7698 37.0798 59.8251 38.677 57.4503C39.8014 55.8105 40.2988 53.8251 40.7828 51.899C41.3239 49.5694 41.7642 47.2154 42.2891 44.8821C42.5906 43.5672 42.9175 42.253 43.4036 40.9981C44.1624 39.115 45.198 37.3365 46.5578 35.8665Z" fill="#E27D60"/>
<path d="M60.6434 49.2202C60.8865 48.0165 60.9865 46.7883 61.1464 45.5728C61.7876 45.6499 62.4301 45.7189 63.0698 45.8123C62.869 47.4076 62.7168 49.0163 62.3441 50.5819C61.9587 52.201 61.3972 53.7859 60.573 55.2166C59.2576 57.5788 57.3575 59.4997 55.3891 61.2567C51.8841 64.3212 48.0564 66.9363 44.278 69.6055C43.9173 69.0389 43.565 68.4663 43.1973 67.9049C45.5631 66.2614 47.9253 64.6119 50.2291 62.8727C52.4491 61.1892 54.6303 59.427 56.56 57.3785C57.3843 56.4544 58.1705 55.4799 58.7933 54.3904C59.717 52.8128 60.3228 51.0388 60.6434 49.2202Z" fill="#E27D60"/>
<path d="M53.4824 63.1454C54.0939 62.7174 54.7069 62.291 55.305 61.8438C56.0589 63.0497 56.8479 64.2334 57.5201 65.4935C58.2048 66.801 58.8326 68.202 58.9136 69.7172C59.0214 71.2347 58.5747 72.7106 58.1034 74.1242C57.4101 73.8661 56.7141 73.6184 56.0201 73.364C56.3033 72.514 56.5887 71.6544 56.6943 70.7563C56.8057 69.8507 56.6345 68.9274 56.29 68.0959C55.5678 66.3219 54.4913 64.7459 53.4824 63.1454Z" fill="#E27D60"/>
<path d="M38.5714 70.1885C40.4264 69.817 42.354 69.8496 44.1963 70.2842C45.5595 70.5912 46.8777 71.0845 48.1804 71.5999C49.7592 72.2281 51.3113 72.929 52.8507 73.6588C55.3926 74.8343 57.9113 76.0662 60.4666 77.2098C62.9944 78.3253 65.5596 79.3822 68.2248 80.0771C69.7677 80.4613 71.3606 80.7246 72.9472 80.5643C75.6301 80.3322 78.1523 79.2145 80.5258 77.9396C82.0264 77.132 83.4925 76.256 84.9875 75.4372C86.0641 74.8328 87.1638 74.2691 88.3045 73.8115C89.8262 73.1952 91.4452 72.7628 93.0868 72.8155C96.2966 72.8637 99.4303 73.8916 102.289 75.3838C105.366 76.9925 108.192 79.0655 111 81.1339C110.548 81.8037 110.124 82.4942 109.658 83.1527C107.304 81.4121 104.935 79.6795 102.41 78.2207C99.8298 76.7455 97.0222 75.5848 94.0724 75.3349C93.1551 75.2563 92.2237 75.2333 91.3177 75.4298C90.0489 75.6976 88.8335 76.1915 87.6668 76.7737C84.9911 78.1154 82.4689 79.7797 79.7628 81.0568C78.3629 81.7302 76.9038 82.2746 75.406 82.6499C74.314 82.882 73.2051 83.0801 72.0877 83.0578C70.5194 83.0971 68.9596 82.8086 67.4435 82.4081C64.5486 81.6405 61.7728 80.4642 59.0293 79.2427C56.4487 78.0709 53.8955 76.8338 51.3261 75.6338C49.793 74.9277 48.2508 74.2402 46.6797 73.6321C45.1685 73.0795 43.6277 72.5403 42.0214 72.4239C40.3482 72.3082 38.6348 72.5277 37.0855 73.2241C35.3186 73.9918 33.7883 75.3208 32.6886 76.9614C32.418 77.3841 32.1433 77.8128 31.97 78.2919C31.7628 79.1404 32.0834 80.0081 32.4272 80.7668C33.3114 82.5001 34.6986 83.9137 36.2774 84.9461C37.578 85.6685 39.0004 86.0994 40.4074 86.5281C43.5573 87.4292 46.7558 88.1315 49.9699 88.7241C49.8064 89.5318 49.65 90.3417 49.483 91.1486C46.4317 90.5516 43.3819 89.9182 40.382 89.0697C38.9448 88.6633 37.5104 88.2198 36.1393 87.605C34.8029 87.0235 33.6489 86.0675 32.6048 85.0299C31.6283 83.999 30.7638 82.8324 30.1741 81.51C29.5971 80.1928 29.3259 78.622 29.8522 77.238C30.1079 76.641 30.4102 76.0588 30.7955 75.5441C30.0156 75.9483 29.1244 76.0017 28.2698 76.0031C27.492 75.9638 26.7121 75.9067 25.9456 75.7539C24.3026 75.4046 22.7041 74.8654 21.0949 74.3789C19.4231 73.8664 17.7449 73.3636 16.0343 73.0143C15.0283 72.8103 14.0067 72.6516 12.9795 72.6805C12.1144 72.6538 11.2682 72.906 10.4637 73.219C8.59386 73.9725 6.95443 75.2467 5.50875 76.6855C4.55553 77.6763 3.65585 78.7525 3.02107 80.0029C2.23059 81.6561 2.18128 83.617 2.60258 85.3896C2.83014 86.2833 3.1965 87.1585 3.789 87.8512C4.44139 88.5632 5.26287 89.0734 6.10266 89.5006C7.68784 90.266 9.40829 90.7147 11.1456 90.8527C12.9232 91.0173 14.7021 90.7244 16.4373 90.338C19.2935 89.6727 22.1207 88.7909 24.7733 87.4781C25.4397 87.1162 26.1126 86.7439 26.6832 86.2247C27.0411 85.9103 27.2609 85.4282 27.2609 84.9372C27.2003 84.18 26.8798 83.4813 26.5163 82.8375C25.6849 81.4136 24.6443 80.1446 23.6207 78.8726C24.211 78.332 24.8141 77.8069 25.4165 77.2803C26.3648 78.4996 27.3525 79.6914 28.1832 81.0064C28.7883 82.0032 29.3548 83.0689 29.533 84.2526C29.6584 85.1589 29.5577 86.1275 29.1061 86.9248C28.5305 88.0054 27.5125 88.71 26.5078 89.2967C25.2178 90.0346 23.8496 90.6138 22.4624 91.1159C20.7201 91.7493 18.944 92.2833 17.1433 92.6979C15.1798 93.1422 13.1676 93.4908 11.1555 93.3209C9.35615 93.1948 7.57089 92.7884 5.89482 92.0838C4.74645 91.5943 3.63612 90.9713 2.68501 90.1266C1.69022 89.2566 0.992745 88.0603 0.567212 86.7854C-0.219037 84.3817 -0.214105 81.659 0.746866 79.3109C1.49789 77.5977 2.69347 76.153 3.96443 74.8447C5.12126 73.6832 6.40349 72.6568 7.79422 71.8261C8.82353 71.2187 9.92471 70.7366 11.0745 70.4518C12.2975 70.1247 13.577 70.1685 14.8204 70.3176C18.267 70.7833 21.5578 72.0093 24.8973 72.9623C26.2161 73.3651 27.5914 73.5861 28.9666 73.5201C29.2146 73.4941 29.4668 73.4681 29.7028 73.3777C29.8902 73.3072 29.9938 73.1159 30.1157 72.9646C30.668 73.391 31.1999 73.8464 31.7389 74.2914C33.5122 72.194 35.9484 70.7188 38.5714 70.1885Z" fill="#E27D60"/>
<path d="M10.9625 74.7868C11.7586 74.4797 12.6365 74.542 13.4481 74.7423C13.3466 75.317 13.2452 75.8918 13.1282 76.4637C12.4808 76.2745 11.7488 76.2271 11.1513 76.6046C10.0516 77.2891 9.14695 78.2637 8.33111 79.2872C7.07002 80.8676 5.91953 82.5423 4.77327 84.2162C4.32167 83.8736 3.86866 83.5317 3.4248 83.1786C4.19062 82.1047 4.92615 81.0078 5.70817 79.9457C6.67407 78.6271 7.66534 77.3121 8.8581 76.21C9.4964 75.6434 10.1713 75.0931 10.9625 74.7868Z" fill="#E27D60"/>
<path d="M46.8779 79.3999C49.5783 80.6281 52.2696 81.8785 54.9398 83.1794C57.5676 84.4773 60.1948 85.8027 62.6473 87.4477C63.5822 88.1203 64.5326 88.8145 65.2378 89.7624C65.633 90.283 65.9212 90.9201 65.9303 91.5965C65.9381 92.3894 65.5154 93.151 64.894 93.5849C64.472 93.8749 63.995 94.0588 63.5188 94.2242C61.8674 94.7538 60.1497 95.0067 58.4441 95.2581C55.0208 95.729 51.5771 96.0138 48.1341 96.2734C44.6608 96.5152 41.1839 96.708 37.7078 96.8593C36.3608 96.9105 35.0158 96.9847 33.6681 96.9995C33.9696 96.378 34.2578 95.7498 34.5635 95.1305C33.9675 95.5955 33.3785 96.0695 32.7818 96.533C32.3795 96.019 32.4873 95.181 33.0023 94.7983C33.418 94.4645 33.9781 94.5416 34.4684 94.5261C41.2368 94.2605 48.0115 93.9209 54.7573 93.2267C56.513 93.0346 58.2686 92.8262 60.0109 92.5243C60.9423 92.3508 61.8772 92.1765 62.784 91.8865C63.0573 91.7938 63.3342 91.7003 63.5836 91.5461C63.2179 90.9372 62.6691 90.49 62.1287 90.0642C61.0734 89.2647 59.9482 88.5742 58.802 87.9305C56.3009 86.5287 53.7252 85.2827 51.141 84.062C49.41 83.2543 47.6825 82.4407 45.943 81.6553C46.2502 80.901 46.5686 80.1527 46.8779 79.3999Z" fill="#E27D60"/>
<path d="M5.10017 84.4839C6.11539 85.1091 7.18415 85.6906 8.01901 86.5791C8.57277 87.1739 8.88628 87.9667 9.05396 88.7699C8.52063 88.9272 7.98449 89.0703 7.45046 89.2231C7.33633 88.7403 7.2229 88.2256 6.88261 87.857C6.14991 87.0404 5.15653 86.5739 4.26953 85.9776C4.55627 85.4859 4.82117 84.9801 5.10017 84.4839Z" fill="#E27D60"/>
</svg>
