<svg width="97" height="111" viewBox="0 0 97 111" fill="none" xmlns="http://www.w3.org/2000/svg">
<path d="M30.0052 63.3607C29.3263 62.9271 29.172 62.0871 29.6657 61.4909C30.1595 60.8947 31.1161 60.7593 31.795 61.1928C33.8934 62.5297 36.0741 63.4781 38.1108 64.0833C40.4355 64.7789 42.5237 65.0318 44.0152 64.9234C44.8586 64.8602 45.5993 65.4112 45.661 66.1519C45.733 66.8926 45.1055 67.5429 44.262 67.5971C42.3899 67.7416 39.8595 67.4436 37.113 66.6216C34.8295 65.9351 32.3608 64.8692 30.0052 63.3607ZM71.027 74.0737C73.6809 82.131 71.5208 86.6384 66.9022 89.547C61.8722 85.4551 61.183 80.0896 65.2461 72.8362C65.0918 72.8091 64.9273 72.791 64.773 72.7639C58.4674 77.0726 52.5631 78.1836 46.6896 74.7331C46.9159 73.7395 47.3068 72.8543 47.852 72.0774C38.4194 72.6736 29.2234 74.8234 22.1259 77.9398C14.514 81.2819 3.98081 86.9636 3.98081 91.5071C3.98081 95.9603 8.91824 100.043 16.3347 103.141C24.7695 106.664 41.7007 107.495 53.0363 107.495C63.9398 107.495 73.7632 105.391 80.8402 101.994C87.5572 98.7695 91.7025 94.4157 91.7025 89.7096C91.7025 85.3919 88.2052 81.3722 82.4449 78.2469C77.8674 77.9759 74.0615 75.5009 71.027 74.0737ZM53.9415 68.4191C56.6776 67.7507 60.1544 67.5791 64.3409 67.8952C57.3051 64.3634 53.7255 60.3076 56.297 52.9097C62.0162 53.4426 66.8919 56.6764 68.6303 65.8628C71.5002 58.7088 76.1393 53.9214 82.774 54.1833C84.1215 59.8831 82.4243 64.4808 72.7963 69.1056C78.0012 69.0966 82.3317 69.494 85.253 71.4C87.0737 70.4063 88.6166 69.3043 89.851 68.121C91.8774 66.179 93.0192 64.0111 93.0192 61.7529C93.0192 57.7784 89.4807 54.093 83.7718 51.347C77.6926 48.4294 69.2475 46.6228 59.8767 46.6228C50.2281 46.6228 40.6104 48.5378 33.5437 51.609C27.2382 54.355 23.0722 57.941 23.0722 61.7529C23.0722 63.2885 23.7614 64.7969 24.9855 66.2241C26.405 67.8681 28.5343 69.4037 31.1881 70.7767C31.3424 70.858 31.4761 70.9483 31.5996 71.0567C38.3063 69.3856 45.733 68.4191 53.0671 68.4191C53.3449 68.4101 53.6432 68.4101 53.9415 68.4191ZM87.8246 74.1008C88.3081 74.9408 88.6784 75.9164 88.9252 77.0455C88.6166 77.181 88.3081 77.2984 87.9995 77.4158C92.8649 80.8664 95.7039 85.0938 95.7039 89.7096C95.7039 95.7887 90.7562 101.208 82.7534 105.056C75.1107 108.724 64.6084 111 53.0466 111C41.1453 111 23.5865 110.043 14.6477 106.303C5.85292 102.618 0 97.4688 0 91.4981C0 85.4912 11.4178 78.7346 20.3566 74.8144C22.3522 73.9382 24.502 73.1343 26.765 72.4116C24.7695 71.1561 23.0928 69.7921 21.8276 68.3198C20.0686 66.2874 19.0811 64.0743 19.0811 61.7438C19.0811 56.4596 24.142 51.7987 31.7847 48.4655C33.3174 47.7971 34.9529 47.1829 36.6707 46.6319C33.8008 45.6202 31.2601 44.4188 29.2646 43.082C26.1375 40.9773 24.2654 38.4842 24.2654 35.675C24.2654 31.267 29.028 27.2654 35.9198 24.3749C37.5451 23.6884 39.304 23.0651 41.1453 22.5051C40.4767 22.0986 39.8595 21.6651 39.3143 21.2044C37.7405 19.8675 36.7119 18.2777 36.3724 16.4802C35.6832 12.849 37.9565 9.21778 42.1842 6.30016C46.093 3.60837 51.7505 1.45855 58.2309 0.510104C64.7112 -0.438346 70.8522 -0.0228345 75.5427 1.41339C80.6242 2.96704 84.1215 5.74916 84.8107 9.38037C85.3662 12.316 83.9981 15.2427 81.2105 17.799C79.6984 19.1901 77.7543 20.4817 75.481 21.6018C77.6617 22.2251 79.6676 22.9748 81.4574 23.8329C87.2486 26.6151 90.8385 30.5714 90.8385 35.0337C90.8385 37.608 89.3778 40.1643 87.012 42.4226C85.4382 43.922 83.4529 45.295 81.2208 46.4602C82.7946 47.0112 84.2861 47.6164 85.6645 48.2849C92.6695 51.6541 97 56.4054 97 61.7529C97 64.9144 95.4776 67.8771 92.7723 70.4786C91.4248 71.7793 89.7481 72.9988 87.8246 74.1008ZM43.1614 44.8976C48.428 43.7594 54.1575 43.1181 59.8767 43.1181C65.6164 43.1181 71.0682 43.7685 75.913 44.9156C75.9645 44.8976 76.0056 44.8705 76.0571 44.8524C79.2355 43.651 82.0848 41.9528 84.0907 40.0559C85.8085 38.421 86.8577 36.6777 86.8577 35.0337C86.8577 31.9444 84.0701 29.063 79.5647 26.8951C76.7771 25.5582 73.3723 24.5104 69.5561 23.86C69.1446 23.9052 68.7332 23.842 68.3732 23.6703C65.853 23.3 63.1786 23.1103 60.4013 23.1103C52.5631 23.1103 44.0357 24.8537 37.6376 27.5364C32.0933 29.8579 28.2565 32.7845 28.2565 35.675C28.2565 37.2919 29.5423 38.8636 31.6819 40.2998C34.3872 42.1154 38.3371 43.651 42.8631 44.7892C42.966 44.8253 43.0688 44.8614 43.1614 44.8976ZM46.7308 21.087C51.195 20.1475 55.9062 19.6146 60.4013 19.6146C63.4975 19.6146 66.4908 19.8494 69.3195 20.274C73.1357 19.0184 76.2731 17.3112 78.3509 15.3962C80.2744 13.6348 81.2414 11.7379 80.9019 9.95847C80.4699 7.68219 77.96 5.84852 74.257 4.71038C70.1939 3.46385 64.7935 3.11157 59.0229 3.94259C58.9406 3.96065 58.8583 3.96969 58.776 3.97872C53.0157 4.83684 48.0474 6.71568 44.6529 9.05519C41.567 11.1869 39.8698 13.6439 40.3018 15.9111C40.4972 16.9409 41.1247 17.8803 42.0916 18.7113C43.2025 19.6598 44.7661 20.4547 46.6587 21.0689C46.6793 21.0599 46.6999 21.0689 46.7308 21.087ZM20.7064 85.1389C21.0972 84.4795 22.023 84.2356 22.7636 84.5789C23.5145 84.9221 23.7923 85.7351 23.4014 86.3855C22.6093 87.7043 22.3933 89.3934 22.5579 91.0374C22.7533 92.9253 23.4425 94.6957 24.3683 95.7525C24.8826 96.3397 24.7489 97.1797 24.0803 97.6314C23.4117 98.083 22.455 97.9656 21.9407 97.3784C20.6961 95.9513 19.76 93.6569 19.5234 91.2722C19.3177 89.1676 19.6263 86.9545 20.7064 85.1389Z" fill="#E27D60"/>
</svg>
