<svg width="97" height="111" viewBox="0 0 97 111" fill="none" xmlns="http://www.w3.org/2000/svg">
<path d="M27.4025 54.693C27.0132 54.8205 26.5945 54.7785 26.2324 54.5756C24.9857 53.7361 23.5909 53.2003 22.1413 53.0041C20.5587 52.998 19.0129 53.5311 17.7148 54.5305C17.5425 54.6465 17.3512 54.7238 17.1518 54.7579C16.9524 54.792 16.7489 54.7822 16.5529 54.7292C16.3551 54.6763 16.1688 54.5807 16.0048 54.4479C15.8407 54.315 15.7022 54.1476 15.5972 53.9552C15.4922 53.7628 15.4228 53.5494 15.393 53.3272C15.3632 53.105 15.3737 52.8785 15.4238 52.6609C15.4687 52.4419 15.5545 52.2356 15.6756 52.0552C15.7968 51.8748 15.9507 51.7243 16.1274 51.6132C17.036 51.0021 18.0161 50.5311 19.0403 50.2132C19.991 49.9238 20.9755 49.7929 21.9613 49.8248C22.9284 49.8486 23.8885 50.0126 24.8169 50.3126C25.7822 50.6245 26.7169 51.0421 27.607 51.559C27.7859 51.6591 27.9449 51.7976 28.0746 51.9665C28.2043 52.1354 28.3021 52.3311 28.3624 52.5423C28.4226 52.7535 28.444 52.9759 28.4252 53.1963C28.4065 53.4167 28.3481 53.6308 28.2534 53.826C28.1792 54.0401 28.0618 54.2327 27.9101 54.3892C27.7584 54.5457 27.5764 54.6619 27.3779 54.7292L27.4025 54.693ZM97 19.7126C95.8954 33.6126 87.7787 41.9942 74.1472 44.4599C74.5972 27.2271 85.0049 22.3228 97 19.7126ZM64.034 22.088C64.9259 14.1489 66.1368 8.15176 73.2799 2.95843C78.4019 7.47437 81.102 10.1117 82.3703 22.1783C78.5983 23.1718 75.2354 27.6606 73.239 34.5248C71.3162 27.778 68.2151 23.6866 64.034 22.088ZM84.9149 21.1848L83.5403 14.0496C85.8641 11.8548 89.8979 10.6536 93.8744 9.53364C93.8641 12.3251 93.6892 15.1128 93.3507 17.8791C90.3827 18.432 87.5267 19.5603 84.9149 21.2119V21.1848ZM61.5303 21.1848L62.9049 14.0496C60.5893 11.8548 56.5474 10.6536 52.579 9.53364C52.5865 12.3249 52.7587 15.1126 53.0945 17.8791C56.0623 18.4277 58.9185 19.553 61.5303 21.2028V21.1848ZM49.3552 19.7126C50.4516 33.6126 58.5683 41.9942 72.1998 44.4599C71.7498 27.2271 61.3666 22.3228 49.3552 19.7126ZM32.59 101.903C32.59 102.372 32.59 102.806 32.59 103.321C32.59 103.835 32.5327 104.45 32.4918 105.019C32.4345 105.795 32.3281 106.554 32.2054 107.313C32.0827 108.071 31.9272 108.821 31.7472 109.562C31.6202 110.054 31.3275 110.474 30.929 110.736C30.7311 110.865 30.512 110.949 30.2844 110.983C30.0568 111.017 29.8253 111 29.6035 110.935C29.1582 110.793 28.7782 110.47 28.5398 110.031C28.4231 109.813 28.3471 109.571 28.3162 109.32C28.2853 109.069 28.3001 108.813 28.3598 108.568C28.5316 107.918 28.6543 107.268 28.7689 106.617C28.8834 105.967 28.9653 105.317 29.0143 104.666C29.0143 104.323 29.0634 103.98 29.0798 103.628V103.068C28.327 103.303 27.5743 103.501 26.8379 103.673C25.9297 103.899 25.0215 104.106 24.146 104.278C22.4195 104.629 20.672 104.841 18.9176 104.91C17.4466 104.974 15.9737 104.865 14.5237 104.585C13.5307 104.396 12.565 104.062 11.6518 103.592C10.8515 103.177 10.1211 102.615 9.4917 101.93C8.82375 101.191 8.31481 100.296 8.00254 99.3105C7.68777 98.2671 7.56807 97.164 7.65071 96.0681C7.71376 95.1307 7.87016 94.2039 8.11709 93.3043C8.38709 92.3034 8.7291 91.3278 9.13986 90.387C9.04986 89.8632 8.95167 89.3303 8.86985 88.7884C8.78803 88.2465 8.69802 87.6233 8.63257 86.982C8.56711 86.3407 8.47711 85.6092 8.42801 84.9318C8.37892 84.2544 8.34619 83.568 8.31346 82.8544C8.31346 82.7912 8.31346 82.7009 8.31346 82.6196C8.21528 81.3642 8.14164 80.1087 8.10891 78.8804C8.07618 77.6521 8.05982 76.3876 8.04345 75.1502V74.807C6.94704 74.7348 5.78517 74.6986 4.70513 74.5903C4.25801 74.5686 3.81527 74.4837 3.3878 74.3374C2.96148 74.1997 2.55611 73.9927 2.18502 73.7232C1.84292 73.4603 1.52745 73.1575 1.24407 72.82C0.698343 72.1209 0.318748 71.2828 0.139476 70.3814C0.0419546 69.9105 -0.00473566 69.4284 0.000378815 68.9453C0.0231418 68.1777 0.144352 67.4175 0.360394 66.6874C0.608528 65.9044 0.938012 65.1558 1.34225 64.4565L5.08151 55.9756C5.72819 54.6585 6.2597 53.2764 6.66885 51.848C6.84251 50.9919 6.88948 50.1104 6.80794 49.2378C6.80794 48.2623 6.72612 46.9979 6.80794 45.1192C6.83294 44.0167 6.90941 42.9164 7.03704 41.8226C7.14495 40.7663 7.31717 39.7193 7.55252 38.6885C7.71616 37.9479 7.90435 37.2344 8.11709 36.5209C8.32983 35.8074 8.50983 35.3648 8.73075 34.8229L2.12774 31.6617C1.91592 31.5614 1.72433 31.4155 1.56417 31.2325C1.40401 31.0495 1.27851 30.8331 1.19498 30.596C1.10609 30.363 1.0603 30.1127 1.0603 29.8599C1.0603 29.6071 1.10609 29.3568 1.19498 29.1238L1.2768 28.9251L1.3668 28.7444C9.00076 17.2378 17.1829 9.61493 25.2424 5.14415C33.4133 0.422111 42.7913 -1.10903 51.8508 0.799813L52.9554 1.06174C53.3072 1.14302 53.6754 1.26044 54.0518 1.35979C54.1226 1.38094 54.1854 1.42654 54.231 1.48992C54.2767 1.55329 54.3027 1.63113 54.3054 1.71203V4.94545C54.3034 5.04054 54.2682 5.13111 54.2073 5.19837C54.1463 5.26563 54.0643 5.30443 53.9782 5.30672H53.8636L52.5381 4.92738C52.0881 4.80997 51.6299 4.70159 51.188 4.61127C43.0352 2.8959 34.597 4.22745 27.2061 8.39562C19.924 12.3426 12.5436 19.0261 5.51516 29.1057C7.58525 30.1173 10.0563 31.1289 12.0609 32.2578C14.3128 32.9796 16.6928 33.0666 18.983 32.5107C21.6956 31.9151 24.3732 31.1399 27.0015 30.1895C28.9898 29.5302 30.9208 28.8709 32.77 28.3832C34.5135 27.8854 36.3041 27.6156 38.1047 27.5793C38.216 27.5618 38.3289 27.5618 38.4402 27.5793C38.5543 27.5934 38.6667 27.6206 38.7757 27.6606C39.2138 27.8215 39.5762 28.1677 39.7833 28.6232C39.9904 29.0787 40.0253 29.6063 39.8803 30.0902C39.0673 32.602 38.636 35.2448 38.6039 37.9118C38.5855 39.9134 38.9889 41.8922 39.7821 43.6922C40.5713 45.3955 41.6522 46.9138 42.9649 48.163C44.423 49.5712 46.027 50.7839 47.7433 51.7757C48.1426 52.0238 48.4368 52.4362 48.5616 52.9228C48.6253 53.1659 48.645 53.4206 48.6194 53.6721C48.5938 53.9237 48.5236 54.1672 48.4126 54.3887C48.3016 54.6102 48.1521 54.8053 47.9727 54.963C47.7933 55.1206 47.5874 55.2376 47.367 55.3072C47.1484 55.3685 46.9208 55.3792 46.6983 55.3388C46.4759 55.2984 46.2634 55.2077 46.0742 55.0724C44.0729 53.9063 42.2027 52.4846 40.5021 50.8364C38.906 49.291 37.5948 47.4203 36.6401 45.327C35.7683 43.3486 35.2568 41.2006 35.1346 39.0047C35.0122 36.5085 35.2441 34.0066 35.8219 31.5895C34.6445 31.7963 33.4782 32.0737 32.3281 32.4204C30.9126 32.8449 29.448 33.3236 27.967 33.8294C25.2367 34.8233 22.4553 35.6376 19.6376 36.268C17.1023 36.8647 14.4816 36.8647 11.9463 36.268C11.737 36.7462 11.554 37.2378 11.3981 37.7402C11.2018 38.3453 11.0545 38.9685 10.9072 39.6008C10.7104 40.4932 10.5628 41.3981 10.4654 42.3103C10.359 43.2135 10.2854 44.2341 10.2526 45.2276C10.2035 46.9617 10.2526 48.1449 10.2526 49.0571C10.3561 50.2319 10.2926 51.4174 10.0644 52.5705C9.62847 54.3616 8.99652 56.0873 8.18255 57.7097L4.41057 66.3351L4.32875 66.4796C4.07746 66.9003 3.87151 67.352 3.71508 67.8254C3.58 68.209 3.50528 68.6152 3.49417 69.0266C3.49116 69.2023 3.50487 69.3779 3.53508 69.5505C3.56257 69.7003 3.60653 69.8459 3.66599 69.984C3.71354 70.0891 3.77412 70.1864 3.846 70.273C3.91188 70.3517 3.98605 70.4215 4.06692 70.4808C4.16997 70.5535 4.27967 70.614 4.3942 70.6614C4.5302 70.7037 4.67029 70.728 4.81149 70.7337C6.1861 70.7337 7.82253 70.9233 9.22987 71.0136H9.42624H9.69625C10.989 71.0136 12.5682 71.2485 13.8773 71.3839C14.34 71.4303 14.7683 71.6731 15.0719 72.0613C15.3701 72.4502 15.5172 72.9534 15.481 73.4613C15.4687 73.7178 15.4098 73.9689 15.3078 74.1997C15.2057 74.4306 15.0627 74.6364 14.8871 74.8049C14.7115 74.9735 14.507 75.1013 14.2857 75.1808C14.0645 75.2603 13.831 75.2898 13.5991 75.2677L11.5209 75.1231V75.1864C11.5209 76.3063 11.5209 77.4172 11.5781 78.5282C11.6354 79.6391 11.6518 80.5874 11.7336 81.6442C12.1721 81.861 12.6265 82.0362 13.0918 82.168C13.5718 82.332 14.065 82.4439 14.5646 82.5022C15.1081 82.576 15.6576 82.576 16.2011 82.5022C16.7441 82.4083 17.2728 82.232 17.7721 81.9783C17.9831 81.8802 18.2099 81.8297 18.4389 81.8297C18.6679 81.8297 18.8947 81.8802 19.1057 81.9783C19.3206 82.0705 19.5166 82.2091 19.6824 82.3859C19.8482 82.5627 19.9804 82.7742 20.0712 83.008C20.1625 83.2371 20.2097 83.4847 20.2097 83.735C20.2097 83.9854 20.1625 84.233 20.0712 84.4621C19.989 84.7012 19.8641 84.9195 19.7038 85.1042C19.5436 85.2888 19.3513 85.436 19.1385 85.5369C18.3531 85.9146 17.5287 86.1845 16.6838 86.3407C15.8527 86.4839 15.0081 86.5051 14.1719 86.404C13.726 86.3566 13.2833 86.2781 12.8464 86.1691C12.56 86.0969 12.2818 86.0066 12.0282 85.9162L12.1018 86.6027C12.1673 87.1807 12.2573 87.7949 12.3636 88.409C12.47 89.0232 12.5764 89.6374 12.6909 90.2606C12.7276 90.4906 12.7276 90.726 12.6909 90.956C12.6622 91.1911 12.5868 91.4163 12.47 91.6154C12.0926 92.4362 11.7725 93.2877 11.5127 94.1623C11.3097 94.8574 11.178 95.5754 11.1199 96.3029C11.0839 96.8727 11.1421 97.4451 11.2918 97.9919C11.4195 98.4638 11.6531 98.8925 11.9709 99.2383C12.3476 99.6205 12.7825 99.9262 13.2555 100.141C13.8619 100.437 14.4997 100.646 15.1538 100.765C16.3884 100.996 17.6417 101.084 18.893 101.027C20.4417 100.961 21.984 100.77 23.5078 100.458C25.1033 100.141 26.7806 99.717 28.5152 99.2112C30.0617 98.7325 31.6081 98.1906 33.1136 97.5493C34.4004 97.0015 35.6547 96.365 36.8692 95.6436C37.8977 95.0381 38.8776 94.3371 39.7985 93.5482C40.6264 92.765 41.3003 91.8029 41.7785 90.7212C42.25 89.6376 42.6572 88.5213 42.9977 87.3794L43.3413 86.2956L43.5459 85.6814C44.0612 84.0449 44.6511 82.4382 45.3132 80.8674C45.9115 79.2702 46.8192 77.8367 47.9724 76.6676C48.1535 76.5114 48.3616 76.398 48.584 76.3343C48.8064 76.2706 49.0382 76.258 49.2652 76.2973C49.494 76.3284 49.7147 76.41 49.9143 76.5372C50.1139 76.6645 50.2883 76.8347 50.4271 77.0379C50.5678 77.2391 50.6711 77.469 50.7308 77.7145C50.7906 77.96 50.8057 78.2161 50.7752 78.468C50.7448 78.72 50.6694 78.9628 50.5535 79.1824C50.4376 79.402 50.2834 79.594 50.0998 79.7475C49.3154 80.6448 48.7032 81.7077 48.2997 82.8725C47.7188 84.2995 47.1951 85.8711 46.8106 87.0362C46.6142 87.5691 46.4506 88.1381 46.2787 88.68C45.8617 90.0869 45.3502 91.4575 44.7487 92.7805C44.0687 94.2538 43.1251 95.5597 41.9749 96.619C40.9163 97.5339 39.7885 98.3468 38.6039 99.0486C37.231 99.8389 35.8156 100.536 34.3655 101.135C34.0464 101.279 33.6945 101.406 33.3509 101.559L32.59 101.858V101.903ZM81.773 70.1105C78.1565 76.6315 72.658 82.6557 64.9259 87.6504C64.8237 87.7166 64.717 87.7739 64.6068 87.822H64.5577C64.5577 88.954 64.5904 90.0739 64.6559 91.1818C64.7213 92.365 64.8277 93.5391 64.9504 94.7043C65.1877 96.9244 65.5484 99.1263 66.0305 101.298C66.502 103.387 67.084 105.443 67.7733 107.457C67.9457 107.93 67.9457 108.457 67.7733 108.929C67.6779 109.16 67.542 109.367 67.3734 109.539C67.2049 109.712 67.007 109.845 66.7914 109.932C66.5805 110.031 66.3537 110.081 66.1246 110.081C65.8955 110.081 65.6687 110.031 65.4577 109.932C65.2474 109.829 65.0583 109.68 64.9021 109.494C64.7459 109.307 64.6259 109.088 64.5495 108.848C63.0447 104.445 62.0282 99.8562 61.5221 95.183C61.2451 92.7139 61.103 90.2286 61.0966 87.7407C61.0868 85.0923 61.2042 82.4453 61.4485 79.8107C61.4705 79.56 61.5376 79.3167 61.6458 79.095C61.754 78.8732 61.9011 78.6775 62.0785 78.5191C62.4362 78.1959 62.8945 78.0403 63.3549 78.0856C63.8133 78.1425 64.2331 78.3959 64.5239 78.7913C64.8147 79.1866 64.9532 79.6921 64.9095 80.1991C64.8604 80.8223 64.8113 81.4635 64.7541 82.1228L64.6395 83.306C70.4724 79.4474 75.3825 74.1018 78.9583 67.717C82.4603 61.2141 83.9413 55.6594 83.7612 48.7501C83.759 48.6533 83.7911 48.5595 83.8508 48.4886C83.9104 48.4177 83.9928 48.3754 84.0804 48.3707H86.9114C87.0004 48.3707 87.0857 48.4097 87.1486 48.4792C87.2115 48.5486 87.2468 48.6428 87.2468 48.741C87.4432 56.7794 85.5286 63.2462 81.7566 70.0563L81.773 70.1105ZM56.4083 59.7328C56.4589 60.2174 56.3408 60.7051 56.078 61.0973C55.8152 61.4894 55.4272 61.7567 54.9926 61.8451C54.5581 61.9335 54.1093 61.8363 53.7371 61.5733C53.365 61.3102 53.0973 60.901 52.9881 60.4283C52.9092 59.9031 52.8735 59.371 52.8817 58.8387C52.9021 58.3215 52.979 57.809 53.1108 57.3123C53.4684 55.9858 54.1678 54.8028 55.1237 53.9073C55.5836 53.4708 56.0957 53.1061 56.6455 52.8234C57.1958 52.5327 57.7794 52.3261 58.3802 52.2093C58.8973 52.0981 59.4251 52.0586 59.9511 52.0919C60.477 52.1165 60.9986 52.2074 61.5057 52.3628C62.6579 52.6682 63.7217 53.2895 64.5986 54.1692C65.2775 54.9073 65.7076 55.8791 65.8178 56.9239C65.9171 57.8551 65.8419 58.7989 65.5968 59.6967C65.3389 60.6805 64.9993 61.6359 64.5822 62.5508C64.2222 63.3907 63.3386 65.4139 62.2012 67.726C61.0635 70.1301 59.7558 72.4313 58.2902 74.6083C56.2855 77.4534 54.2891 79.3862 52.6608 79.1243C51.0326 78.8623 49.8134 76.3063 49.5189 70.273C49.4945 70.0183 49.5167 69.7607 49.5842 69.5156C49.6517 69.2704 49.763 69.0428 49.9116 68.846C50.221 68.482 50.6464 68.2651 51.098 68.2409C51.5498 68.2359 51.9871 68.4161 52.3254 68.7466C52.497 68.9158 52.6362 69.1212 52.7346 69.3509C52.833 69.5805 52.8886 69.8296 52.8981 70.0834C53.0045 72.4136 53.3481 73.4252 53.7818 73.5968C54.2154 73.7684 54.7718 73.1632 55.4182 72.251C56.7791 70.2197 57.9964 68.0758 59.0593 65.8384C60.123 63.6527 60.9739 61.7289 61.3176 60.916C61.6065 60.2774 61.8526 59.6163 62.0539 58.938C62.2085 58.47 62.2754 57.9722 62.2503 57.4748C62.2017 57.1953 62.0546 56.9484 61.8412 56.7884C61.4515 56.473 61.0136 56.2374 60.5484 56.093C60.2806 56.0195 60.0061 55.9801 59.7302 55.9756C59.4565 55.9588 59.1819 55.977 58.912 56.0298C58.6116 56.0882 58.3198 56.1915 58.0447 56.3368C57.7699 56.4798 57.5117 56.6587 57.2756 56.8697C57.0643 57.0747 56.8774 57.3084 56.7192 57.5652C56.5659 57.8117 56.4549 58.0872 56.3919 58.3781C56.3341 58.5985 56.3011 58.826 56.2937 59.0554C56.2574 59.2886 56.2574 59.5268 56.2937 59.7599L56.4083 59.7328Z" fill="#E27D60"/>
</svg>
