<svg width="120" height="34" viewBox="0 0 120 34" fill="none" xmlns="http://www.w3.org/2000/svg">
<rect width="120" height="34" rx="3" fill="white"/>
<rect x="0.25" y="0.25" width="119.5" height="33.5" rx="2.75" stroke="#303030" stroke-opacity="0.2" stroke-width="0.5"/>
<g clip-path="url(#clip0_20_618)">
<path d="M34 17.061C34 11.5385 29.5225 7.06104 24 7.06104C18.4775 7.06104 14 11.5385 14 17.061C14 22.0527 17.6567 26.1894 22.4375 26.9394V19.9519H19.8983V17.0602H22.4375V14.8585C22.4375 12.3527 23.9308 10.9677 26.215 10.9677C27.3083 10.9677 28.4533 11.1635 28.4533 11.1635V13.6244H27.1917C25.9492 13.6244 25.5617 14.3952 25.5617 15.186V17.061H28.335L27.8917 19.9527H25.5617V26.9402C30.3433 26.1894 34 22.0519 34 17.061Z" fill="#E27D60"/>
</g>
<path d="M67.9608 10.8083C67.2121 11.138 66.4188 11.3556 65.6067 11.4542C66.4618 10.9402 67.102 10.1342 67.4092 9.18499C66.6167 9.64749 65.7383 9.98416 64.8033 10.1717C64.1865 9.51202 63.3691 9.07451 62.478 8.92708C61.587 8.77964 60.6722 8.93053 59.8758 9.35632C59.0793 9.7821 58.4457 10.4589 58.0734 11.2818C57.701 12.1046 57.6108 13.0273 57.8167 13.9067C54.4083 13.7458 51.3892 12.1083 49.3667 9.63499C48.999 10.2598 48.8072 10.9725 48.8117 11.6975C48.8117 13.1225 49.5367 14.375 50.635 15.1108C49.984 15.0901 49.3475 14.9141 48.7783 14.5975V14.6475C48.778 15.5945 49.1052 16.5124 49.7046 17.2456C50.304 17.9788 51.1385 18.4821 52.0667 18.67C51.4652 18.8311 50.8353 18.8553 50.2233 18.7408C50.4868 19.5558 50.9981 20.2683 51.6858 20.7787C52.3736 21.2892 53.2036 21.5722 54.06 21.5883C52.6096 22.7266 50.8187 23.3444 48.975 23.3425C48.65 23.3425 48.3258 23.3233 48 23.2867C49.8798 24.4903 52.0654 25.1292 54.2975 25.1275C61.8417 25.1275 65.9625 18.8808 65.9625 13.4733C65.9625 13.2983 65.9625 13.1233 65.95 12.9483C66.755 12.369 67.4494 11.6498 68 10.825L67.9608 10.8083Z" fill="#E27D60"/>
<g clip-path="url(#clip1_20_618)">
<path d="M92 7C89.2833 7 88.9442 7.0125 87.8775 7.06C86.8125 7.11 86.0875 7.2775 85.45 7.525C84.7925 7.78 84.2342 8.1225 83.6783 8.67833C83.1225 9.23417 82.7792 9.79167 82.525 10.45C82.2775 11.0875 82.1092 11.8125 82.06 12.8775C82.01 13.9442 82 14.2833 82 17C82 19.7167 82.0125 20.0558 82.06 21.1225C82.11 22.1867 82.2775 22.9125 82.525 23.55C82.7761 24.2174 83.1697 24.822 83.6783 25.3217C84.1777 25.8307 84.7824 26.2243 85.45 26.475C86.0883 26.7217 86.8133 26.8908 87.8775 26.94C88.9442 26.99 89.2833 27 92 27C94.7167 27 95.0558 26.9875 96.1225 26.94C97.1867 26.89 97.9125 26.7217 98.55 26.475C99.2172 26.2236 99.8218 25.8301 100.322 25.3217C100.831 24.8224 101.225 24.2177 101.475 23.55C101.722 22.9125 101.891 22.1867 101.94 21.1225C101.99 20.0558 102 19.7167 102 17C102 14.2833 101.987 13.9442 101.94 12.8775C101.89 11.8133 101.722 11.0867 101.475 10.45C101.224 9.78268 100.83 9.17811 100.322 8.67833C99.8226 8.16887 99.2178 7.77516 98.55 7.525C97.9125 7.2775 97.1867 7.10917 96.1225 7.06C95.0558 7.01 94.7167 7 92 7ZM92 8.8C94.6692 8.8 94.9875 8.81333 96.0417 8.85917C97.0167 8.905 97.5458 9.06667 97.8975 9.205C98.3658 9.38583 98.6975 9.6025 99.0492 9.95167C99.3983 10.3017 99.615 10.6342 99.7958 11.1025C99.9325 11.4542 100.096 11.9833 100.14 12.9583C100.188 14.0133 100.198 14.33 100.198 17C100.198 19.67 100.186 19.9875 100.137 21.0417C100.086 22.0167 99.9233 22.5458 99.7858 22.8975C99.6232 23.3315 99.3675 23.7246 99.0367 24.0492C98.7134 24.3802 98.3206 24.6353 97.8867 24.7958C97.5367 24.9325 96.9992 25.0958 96.0242 25.14C94.9625 25.1875 94.65 25.1983 91.975 25.1983C89.2992 25.1983 88.9867 25.1858 87.9258 25.1367C86.95 25.0858 86.4125 24.9233 86.0625 24.7858C85.6283 24.6252 85.2356 24.3692 84.9133 24.0367C84.5788 23.7156 84.3223 23.3222 84.1633 22.8867C84.0258 22.5367 83.8642 21.9992 83.8133 21.0242C83.7758 19.9742 83.7625 19.65 83.7625 16.9875C83.7625 14.3242 83.7758 13.9992 83.8133 12.9367C83.8642 11.9617 84.0258 11.425 84.1633 11.075C84.3383 10.6 84.5625 10.275 84.9133 9.92417C85.2625 9.575 85.5883 9.35 86.0625 9.17583C86.4125 9.0375 86.9383 8.875 87.9133 8.825C88.9758 8.7875 89.2883 8.775 91.9625 8.775L92 8.8ZM92 11.865C91.3257 11.865 90.6579 11.9978 90.0349 12.2559C89.4119 12.5139 88.8458 12.8922 88.369 13.369C87.8922 13.8458 87.5139 14.4119 87.2559 15.0349C86.9978 15.6579 86.865 16.3257 86.865 17C86.865 17.6743 86.9978 18.3421 87.2559 18.9651C87.5139 19.5881 87.8922 20.1542 88.369 20.631C88.8458 21.1078 89.4119 21.4861 90.0349 21.7441C90.6579 22.0022 91.3257 22.135 92 22.135C93.3619 22.135 94.668 21.594 95.631 20.631C96.594 19.668 97.135 18.3619 97.135 17C97.135 15.6381 96.594 14.332 95.631 13.369C94.668 12.406 93.3619 11.865 92 11.865ZM92 20.3333C90.1583 20.3333 88.6667 18.8417 88.6667 17C88.6667 15.1583 90.1583 13.6667 92 13.6667C93.8417 13.6667 95.3333 15.1583 95.3333 17C95.3333 18.8417 93.8417 20.3333 92 20.3333ZM98.5383 11.6625C98.5268 11.973 98.3953 12.267 98.1715 12.4826C97.9477 12.6982 97.6491 12.8186 97.3383 12.8186C97.0276 12.8186 96.729 12.6982 96.5052 12.4826C96.2814 12.267 96.1499 11.973 96.1383 11.6625C96.1383 11.3442 96.2648 11.039 96.4898 10.814C96.7148 10.5889 97.0201 10.4625 97.3383 10.4625C97.6566 10.4625 97.9618 10.5889 98.1869 10.814C98.4119 11.039 98.5383 11.3442 98.5383 11.6625Z" fill="#E27D60"/>
</g>
<defs>
<clipPath id="clip0_20_618">
<rect width="20" height="20" fill="white" transform="translate(14 7)"/>
</clipPath>
<clipPath id="clip1_20_618">
<rect width="20" height="20" fill="white" transform="translate(82 7)"/>
</clipPath>
</defs>
</svg>
